<?xml version="1.0" encoding="utf-8"?>
<!-- Svg Vector Icons : http://www.onlinewebfonts.com/icon -->
<!DOCTYPE svg PUBLIC "-//W3C//DTD SVG 1.1//EN" "http://www.w3.org/Graphics/SVG/1.1/DTD/svg11.dtd">
<svg version="1.1" xmlns="http://www.w3.org/2000/svg" xmlns:xlink="http://www.w3.org/1999/xlink" x="0px" y="0px" viewBox="0 0 1000 1000" enable-background="new 0 0 1000 1000" xml:space="preserve" fill="#FFB52E">
<metadata> Svg Vector Icons : http://www.onlinewebfonts.com/icon </metadata>
<g><g transform="translate(0.000000,511.000000) scale(0.100000,-0.100000)"><path d="M1519.2,4712c-53-79.5-94.9-152.3-94.9-161.1c0-11,1567.1-1074.9,3483-2366.1C6820.9,893.6,8436.6-199,8498.4-241l108.2-79.4l-509.9-99.3c-280.3-55.2-516.5-105.9-525.3-112.6c-22.1-24.3,37.5-333.3,68.4-344.3c15.5-4.4,390.7,59.6,834.3,145.7c441.4,86.1,810,156.7,816.7,156.7c6.6,0,13.2,22.1,13.2,46.3c0,50.8-309,1637.7-320,1648.8c-8.8,8.8-344.3-57.4-357.6-68.4c-2.2-4.4,39.7-234,92.7-512.1c55.2-278.1,97.1-512.1,94.9-520.9c-4.4-6.6-1624.5,1077.1-3600,2410.3C3236.4,3765.1,1616.4,4855.5,1616.4,4855.5C1614.1,4855.5,1570,4789.3,1519.2,4712z"/><path d="M850.4-1059.8v-3200.5H475.2H100v-187.6v-187.6h4900h4900v187.6v187.6h-375.2h-375.2l-4.4,944.7l-6.6,942.5h-750.4h-750.4l-6.6-942.5l-4.4-944.7h-375.2h-375.2v1699.6v1699.6h-750.5h-750.4v-1699.6v-1699.6H5000h-375.2v2450v2450h-750.4h-750.5v-2450v-2450h-375.2h-375.2v3200.5v3200.4h-761.5H850.4V-1059.8z M1976.1-1247.4v-3012.8h-375.2h-375.2v3012.8v3012.8h375.2h375.2V-1247.4z M4249.6-1997.9v-2262.4h-375.2h-375.2v2262.4V264.5h375.2h375.2V-1997.9z M6500.9-2748.3v-1511.9h-375.2h-375.2v1511.9v1511.9h375.2h375.2V-2748.3z M8774.3-3509.8v-750.4h-375.2h-375.2v750.4v750.4h375.2h375.2V-3509.8z"/></g></g>
</svg>