<?xml version="1.0" encoding="utf-8"?>
<!-- Svg Vector Icons : http://www.onlinewebfonts.com/icon -->
<!DOCTYPE svg PUBLIC "-//W3C//DTD SVG 1.1//EN" "http://www.w3.org/Graphics/SVG/1.1/DTD/svg11.dtd">
<svg version="1.1" xmlns="http://www.w3.org/2000/svg" xmlns:xlink="http://www.w3.org/1999/xlink" x="0px" y="0px" viewBox="0 0 1000 1000" enable-background="new 0 0 1000 1000" xml:space="preserve" fill="#FF0000">
<metadata> Svg Vector Icons : http://www.onlinewebfonts.com/icon </metadata>
<g><g transform="translate(0.000000,511.000000) scale(0.100000,-0.100000)"><path d="M6889.4,4820.6c-24.3-83.9-61.8-315.6-52.9-324.5c4.4-4.4,222.9-50.8,483.4-99.3c258.2-50.8,490-97.1,514.3-105.9c30.9-13.2-770.3-562.8-3509.5-2410.3C2373.4,565.1,757.7-529.7,731.3-549.6c-44.1-35.3-44.1-37.5,50.8-183.2c53-79.5,103.7-145.7,112.6-145.7c6.6,0,1628.9,1088.1,3600,2416.9c1971,1330.9,3586.7,2410.3,3588.9,2401.4c4.4-8.8-37.5-245-92.7-523.1c-53-280.3-94.9-509.9-92.7-509.9c8.8-6.6,357.6-72.8,362-68.4c8.8,6.6,331.1,1679.7,324.5,1686.3c-4.4,6.6-907.2,185.4-1624.5,322.3C6915.8,4855.9,6898.2,4849.3,6889.4,4820.6z"/><path d="M7626.6-1055v-3200.4h-375.2h-375.2v2450v2450h-750.5h-750.4v-2450v-2450H5000h-375.2v1699.6v1699.6h-750.4h-750.5v-1699.6v-1699.6h-375.2h-375.2l-4.4,944.7l-6.6,942.5h-750.4H861.5l-6.6-942.5l-4.4-944.7H475.2H100v-187.6v-187.6h4900h4900v187.6v187.6h-375.2h-375.2V-1055v3200.4h-761.5h-761.5V-1055z M8774.3-1242.6v-3012.8h-375.2h-375.2v3012.8v3012.8h375.2h375.2V-1242.6z M6500.9-1993.1v-2262.4h-375.2h-375.2v2262.4V269.3h375.2h375.2V-1993.1z M4249.6-2743.5v-1511.9h-375.2h-375.2v1511.9v1511.9h375.2h375.2V-2743.5z M1976.1-3505v-750.4h-375.2h-375.2v750.4v750.4h375.2h375.2V-3505z"/></g></g>
</svg>