<?xml version="1.0" encoding="UTF-8" standalone="no"?> <svg xmlns="http://www.w3.org/2000/svg" viewBox="0 0 64 64"><g id="Outline"><path d="M21,24.855V26a1,1,0,0,0,2,0V24.855a2.844,2.844,0,0,0,.422-5.262l-1.949-.975A.854.854,0,0,1,21.854,17h.292a.855.855,0,0,1,.854.854V18a1,1,0,0,0,2,0v-.146a2.849,2.849,0,0,0-2-2.709V14a1,1,0,0,0-2,0v1.145a2.844,2.844,0,0,0-.422,5.262l1.949.975A.854.854,0,0,1,22.146,23h-.292A.855.855,0,0,1,21,22.146V22a1,1,0,0,0-2,0v.146A2.849,2.849,0,0,0,21,24.855Z"/><path d="M61,39V36a3,3,0,0,0-2.579-2.958A3.959,3.959,0,0,0,59,31V20a5.006,5.006,0,0,0-5-5H49V10a1,1,0,0,0-1-1H16a1,1,0,0,0-1,1V23.049A4.3,4.3,0,0,0,14.416,23H5a3,3,0,0,0-3,3v2a1,1,0,0,0,1,1H6v6H5a1,1,0,0,0-1,1v3H3a1,1,0,0,0-1,1V54a1,1,0,0,0,1,1H61a1,1,0,0,0,1-1V40A1,1,0,0,0,61,39Zm-2-3v3H51V36a1,1,0,0,1,1-1h6A1,1,0,0,1,59,36ZM41,39V37.64A3.008,3.008,0,0,0,38.588,34.7L36,34.181V31H48a1,1,0,0,0,1-1V25h2v6a3.959,3.959,0,0,0,.579,2.042A3,3,0,0,0,49,36v3ZM20,39V36a1,1,0,0,0-1-1H18V31H28v3.181l-2.588.517A3.008,3.008,0,0,0,23,37.64V39Zm5-1.36a1,1,0,0,1,.8-.981L29.2,35.98A1,1,0,0,0,30,35V31h4v4a1,1,0,0,0,.8.98l3.392.679a1,1,0,0,1,.8.981V39H25ZM48,17a1,1,0,0,1,1,1v4a1,1,0,0,1-1,1H46a1,1,0,0,1-1-1V18a1,1,0,0,1,1-1Zm9,3V31a2,2,0,0,1-4,0V25a2,2,0,0,0-2-2h-.184A2.966,2.966,0,0,0,51,22V18a2.966,2.966,0,0,0-.184-1H54A3,3,0,0,1,57,20ZM47,11v4H46a3,3,0,0,0-3,3v4a3,3,0,0,0,3,3h1v4H18V26a2.755,2.755,0,0,0-1-2.069V11ZM4,26a1,1,0,0,1,2,0v1H4Zm4,2V26a2.966,2.966,0,0,0-.184-1h6.6c.933,0,1.584.527,1.584,1v9H8ZM6,37H18v2H6ZM60,53H4V41H60Z"/><path d="M13,27H11a1,1,0,0,0,0,2h2a1,1,0,0,0,0-2Z"/><path d="M13,31H11a1,1,0,0,0,0,2h2a1,1,0,0,0,0-2Z"/><path d="M46,21a1,1,0,0,0,2,0V19a1,1,0,0,0-2,0Z"/><path d="M28,15h5a1,1,0,0,0,0-2H28a1,1,0,0,0,0,2Z"/><path d="M37,15h5a1,1,0,0,0,0-2H37a1,1,0,0,0,0,2Z"/><path d="M28,19h5a1,1,0,0,0,0-2H28a1,1,0,0,0,0,2Z"/><path d="M37,19h3a1,1,0,0,0,0-2H37a1,1,0,0,0,0,2Z"/><path d="M28,23h5a1,1,0,0,0,0-2H28a1,1,0,0,0,0,2Z"/><path d="M37,23h3a1,1,0,0,0,0-2H37a1,1,0,0,0,0,2Z"/><path d="M28,27h5a1,1,0,0,0,0-2H28a1,1,0,0,0,0,2Z"/><path d="M37,27h5a1,1,0,0,0,0-2H37a1,1,0,0,0,0,2Z"/><circle cx="32" cy="45" r="2"/><path d="M37,49H27a1,1,0,0,0,0,2H37a1,1,0,0,0,0-2Z"/></g></svg>