<?xml version="1.0" standalone="no"?>
<!DOCTYPE svg PUBLIC "-//W3C//DTD SVG 20010904//EN"
 "http://www.w3.org/TR/2001/REC-SVG-20010904/DTD/svg10.dtd">
<svg version="1.0" xmlns="http://www.w3.org/2000/svg"
 width="512.000000pt" height="512.000000pt" viewBox="0 0 512.000000 512.000000"
 preserveAspectRatio="xMidYMid meet">

<g transform="translate(0.000000,512.000000) scale(0.100000,-0.100000)"
fill="#000000" stroke="none">
<path d="M921 4944 c-253 -68 -410 -331 -346 -579 67 -256 329 -415 580 -350
256 67 415 329 350 578 -67 259 -333 419 -584 351z m270 -185 c67 -36 98 -68
137 -143 22 -43 26 -64 26 -136 1 -78 -2 -90 -33 -148 -38 -70 -70 -100 -145
-140 -43 -22 -64 -26 -136 -26 -72 0 -93 4 -136 26 -75 40 -107 70 -145 140
-31 58 -34 70 -33 148 0 100 24 160 89 225 100 100 249 121 376 54z"/>
<path d="M2112 4463 c-29 -24 -266 -687 -257 -720 14 -59 87 -82 128 -40 14
14 62 134 127 319 l105 298 1033 0 c610 0 1032 -4 1032 -9 0 -5 -171 -488
-380 -1073 l-380 -1063 0 -927 0 -928 -960 0 -960 0 0 1158 0 1158 72 -35 72
-36 300 -3 c354 -4 367 -2 441 72 98 99 101 223 8 326 -66 74 -94 80 -355 80
l-218 0 0 143 c0 178 -11 240 -60 343 -73 153 -231 274 -394 303 -79 15 -773
15 -852 0 -212 -38 -405 -231 -443 -443 -16 -88 -15 -1246 1 -1300 8 -26 31
-60 63 -92 59 -59 117 -80 195 -71 l50 6 0 -860 0 -860 25 -24 c32 -33 78 -33
110 0 l25 24 0 1471 0 1471 -25 24 c-32 33 -78 33 -110 0 l-25 -24 0 -511 0
-511 -25 -24 c-32 -33 -78 -33 -111 0 l-25 25 3 622 3 623 32 67 c44 93 100
151 191 196 l76 37 415 0 416 0 67 -32 c93 -44 151 -100 196 -191 l37 -76 5
-229 c5 -226 5 -229 29 -248 22 -18 42 -19 293 -19 l269 0 24 -25 c16 -15 25
-36 25 -55 0 -19 -9 -40 -25 -55 l-24 -25 -272 0 c-186 0 -285 4 -313 12 -56
17 -141 100 -155 153 -6 22 -11 91 -11 153 0 107 -1 114 -25 137 -32 33 -78
33 -110 0 l-25 -24 0 -1471 0 -1471 25 -24 24 -25 1711 0 1711 0 25 25 24 24
-2 1983 -3 1983 -32 67 c-44 93 -100 151 -191 196 l-76 37 -1262 3 c-1194 2
-1262 1 -1282 -15z m2522 -155 c55 -16 138 -99 154 -154 9 -32 12 -478 12
-1938 l0 -1896 -560 0 -560 0 0 913 0 912 387 1087 388 1088 69 0 c38 0 87 -5
110 -12z"/>
<path d="M2397 4138 c-18 -17 -63 -132 -171 -434 -80 -227 -146 -422 -146
-433 0 -32 44 -71 78 -71 17 0 39 8 51 18 14 11 65 140 157 400 l137 382 634
0 c633 0 634 0 628 -20 -4 -11 -131 -370 -284 -798 l-278 -777 -712 -5 -713
-5 -19 -24 c-26 -32 -24 -77 6 -106 l24 -25 740 0 c531 0 747 3 765 11 15 7
32 29 41 53 67 167 628 1757 628 1780 0 20 -9 37 -27 53 l-27 23 -744 0 -744
0 -24 -22z"/>
<path d="M1945 2055 c-16 -15 -25 -36 -25 -55 0 -19 9 -40 25 -55 23 -24 31
-25 135 -25 104 0 112 1 135 25 16 15 25 36 25 55 0 19 -9 40 -25 55 -23 24
-31 25 -135 25 -104 0 -112 -1 -135 -25z"/>
<path d="M2745 2055 c-16 -15 -25 -36 -25 -55 0 -19 9 -40 25 -55 23 -24 31
-25 135 -25 104 0 112 1 135 25 16 15 25 36 25 55 0 19 -9 40 -25 55 -23 24
-31 25 -135 25 -104 0 -112 -1 -135 -25z"/>
<path d="M985 1895 l-25 -24 0 -831 0 -831 25 -24 c32 -33 78 -33 110 0 l25
24 0 831 0 831 -25 24 c-15 16 -36 25 -55 25 -19 0 -40 -9 -55 -25z"/>
</g>
</svg>
